<?xml version="1.0" encoding="utf-8"?>
<!-- Generator: Adobe Illustrator 15.0.2, SVG Export Plug-In . SVG Version: 6.00 Build 0)  -->
<!DOCTYPE svg PUBLIC "-//W3C//DTD SVG 1.1//EN" "http://www.w3.org/Graphics/SVG/1.1/DTD/svg11.dtd">
<svg version="1.1" id="Layer_1" xmlns="http://www.w3.org/2000/svg" xmlns:xlink="http://www.w3.org/1999/xlink" x="0px" y="0px"
	 width="468.779px" height="512px" viewBox="0.855 0 468.779 512" enable-background="new 0.855 0 468.779 512"
	 xml:space="preserve">
<path fill="#C02030" d="M320.378,399.746v25.271c0,25.715-8.081,46.626-24.071,62.788C280.218,503.968,259.893,512,235.281,512
	c-26.985,0-47.85-8.375-62.812-25.223c-14.889-16.85-22.309-39.083-22.309-66.707v-7.688c0-1.028,0.196-2.104,0.661-3.575
	l0.686-9.061c-25.075,18.072-47.874,27.229-68.297,27.229c-16.31,0-31.443-5.287-45.328-15.77
	c-14.007-10.434-23.974-23.362-30.047-38.645c-4.678-10.773-6.979-22.138-6.979-34.232c0-34.382,19.812-60.684,59.335-78.805
	L67.855,256c-44.667-20.423-67-48.095-67-82.966c0-23.312,8.18-43.883,24.439-61.711C41.579,93.35,61.097,84.436,83.92,84.436
	c19.958,0,40.16,7.347,60.682,22.138l6.905,5.044c-0.955-10.285-1.347-18.513-1.347-24.537c0-25.271,8.032-46.136,24.072-62.494
	C190.223,8.18,210.598,0,235.281,0c26.962,0,47.875,8.473,62.737,25.272c14.938,16.896,22.357,39.034,22.357,66.656v11.313v8.375
	c24.831-18.121,47.385-27.182,67.71-27.182c22.113,0,41.214,9.061,57.376,27.182c16.138,18.122,24.17,38.594,24.17,61.417
	c0,34.871-19.762,61.318-59.286,79.488L402.683,256c44.645,20.521,66.951,47.948,66.951,82.33c0,22.773-7.981,43.246-23.827,61.416
	c-15.893,18.072-35.165,27.229-57.719,27.229c-23.019,0-43.344-7.197-60.779-21.547L320.378,399.746z M277.107,313.205
	c39.5,57.645,76.281,86.541,110.222,86.541c13.934,0,26.643-6.171,38.006-18.514c11.387-12.342,17.117-26.645,17.117-42.902
	c0-42.316-45.646-67.393-136.769-75.326v-14.693c91.12-7.836,136.769-32.961,136.769-75.276c0-15.379-5.51-29.484-16.407-42.218
	c-10.922-12.832-23.827-19.199-38.716-19.199c-34.455,0-71.163,29.142-110.222,87.179l-13.248-7.641
	c19.566-39.573,29.288-73.023,29.288-100.45c0-42.316-19.321-63.523-57.866-63.523c-18.61,0-32.912,5.73-42.952,17.143
	c-9.967,11.362-14.986,26.398-14.986,44.96c0,27.476,9.771,61.417,29.337,101.871l-13.298,7.641
	c-39.059-58.037-75.767-87.179-110.172-87.179c-13.983,0-26.619,6.221-38.006,18.514c-11.437,12.293-17.117,26.594-17.117,42.903
	c0,42.707,45.548,67.931,136.718,75.276v14.693c-91.17,7.935-136.718,33.011-136.718,75.326c0,15.329,5.411,29.435,16.406,42.168
	c10.922,12.782,23.778,19.248,38.717,19.248c33.892,0,70.722-28.896,110.172-86.541l13.298,7.052
	c-19.566,40.357-29.337,74.592-29.337,102.508c0,18.562,5.02,33.601,14.986,44.961c10.04,11.411,24.342,17.095,42.952,17.095
	c38.545,0,57.866-20.913,57.866-62.839c0-27.377-9.722-61.367-29.288-101.725L277.107,313.205z"/>
</svg>
