<?xml version="1.0" encoding="utf-8"?>
<!-- Generator: Adobe Illustrator 15.0.2, SVG Export Plug-In . SVG Version: 6.00 Build 0)  -->
<!DOCTYPE svg PUBLIC "-//W3C//DTD SVG 1.1//EN" "http://www.w3.org/Graphics/SVG/1.1/DTD/svg11.dtd">
<svg version="1.1" id="Layer_1" xmlns="http://www.w3.org/2000/svg" xmlns:xlink="http://www.w3.org/1999/xlink" x="0px" y="0px"
	 width="1054.759px" height="512px" viewBox="0.855 0 1054.759 512" enable-background="new 0.855 0 1054.759 512"
	 xml:space="preserve">
<path fill="#C02030" d="M320.378,399.746v25.271c0,25.714-8.081,46.626-24.071,62.788C280.218,503.968,259.893,512,235.281,512
	c-26.985,0-47.85-8.375-62.812-25.223c-14.889-16.849-22.309-39.083-22.309-66.707v-7.688c0-1.028,0.196-2.104,0.661-3.575
	l0.686-9.061c-25.075,18.072-47.874,27.229-68.297,27.229c-16.31,0-31.443-5.288-45.328-15.77
	c-14.007-10.433-23.974-23.362-30.047-38.644c-4.678-10.774-6.979-22.138-6.979-34.233c0-34.382,19.812-60.683,59.335-78.804
	L67.855,256c-44.667-20.423-67-48.095-67-82.966c0-23.312,8.18-43.883,24.439-61.711C41.579,93.35,61.097,84.436,83.92,84.436
	c19.958,0,40.16,7.347,60.682,22.138l6.905,5.044c-0.955-10.285-1.347-18.513-1.347-24.537c0-25.271,8.032-46.136,24.072-62.494
	C190.223,8.18,210.598,0,235.281,0c26.962,0,47.875,8.473,62.738,25.272c14.938,16.896,22.357,39.034,22.357,66.656v11.313v8.375
	c24.831-18.121,47.385-27.182,67.71-27.182c22.113,0,41.214,9.061,57.376,27.182c16.138,18.122,24.17,38.594,24.17,61.417
	c0,34.871-19.762,61.318-59.286,79.488L402.683,256c44.644,20.521,66.951,47.948,66.951,82.33c0,22.773-7.982,43.246-23.827,61.416
	c-15.893,18.072-35.165,27.229-57.719,27.229c-23.019,0-43.344-7.198-60.779-21.548L320.378,399.746z M277.107,313.205
	c39.5,57.645,76.281,86.541,110.222,86.541c13.934,0,26.643-6.171,38.006-18.514c11.387-12.342,17.117-26.644,17.117-42.902
	c0-42.316-45.646-67.393-136.768-75.326v-14.693c91.12-7.836,136.768-32.961,136.768-75.276c0-15.379-5.51-29.484-16.407-42.218
	c-10.922-12.832-23.827-19.199-38.716-19.199c-34.455,0-71.163,29.142-110.222,87.179l-13.248-7.641
	c19.566-39.573,29.288-73.023,29.288-100.45c0-42.316-19.321-63.523-57.866-63.523c-18.61,0-32.912,5.73-42.952,17.143
	c-9.967,11.362-14.986,26.398-14.986,44.96c0,27.476,9.771,61.417,29.337,101.871l-13.298,7.641
	c-39.059-58.037-75.767-87.179-110.172-87.179c-13.983,0-26.619,6.221-38.006,18.514c-11.437,12.293-17.117,26.594-17.117,42.903
	c0,42.707,45.548,67.931,136.718,75.276v14.693c-91.17,7.935-136.718,33.011-136.718,75.326c0,15.329,5.411,29.435,16.406,42.168
	c10.922,12.782,23.778,19.248,38.717,19.248c33.892,0,70.722-28.896,110.172-86.541l13.298,7.052
	c-19.566,40.357-29.337,74.592-29.337,102.508c0,18.562,5.02,33.6,14.986,44.961c10.04,11.411,24.342,17.094,42.952,17.094
	c38.545,0,57.866-20.913,57.866-62.838c0-27.377-9.722-61.367-29.288-101.725L277.107,313.205z M906.334,399.746v25.271
	c0,25.714-8.033,46.626-23.902,62.788C866.539,503.968,846.361,512,821.898,512c-26.742,0-47.559-8.375-62.301-25.223
	c-14.691-16.849-22.111-39.083-22.111-66.707v-7.688v-3.575v-9.061c-25.076,18.072-47.899,27.229-68.348,27.229
	c-16.31,0-31.345-5.288-45.353-15.77c-13.935-10.433-23.974-23.362-29.974-38.644c-4.678-10.774-6.979-22.138-6.979-34.233
	c0-34.382,19.762-60.683,59.285-78.804l7.714-3.526c-44.69-20.423-66.999-48.095-66.999-82.966c0-23.312,8.13-43.883,24.365-61.711
	c16.31-17.974,35.875-26.888,58.625-26.888c20.03,0,40.233,7.347,60.706,22.138l6.955,5.044V87.08
	c0-25.271,7.982-46.136,23.925-62.494C777.304,8.18,797.482,0,821.898,0c26.739,0,47.481,8.571,62.248,25.615
	c14.791,17.093,22.188,39.426,22.188,67.098v10.529v8.375c24.879-18.121,47.457-27.182,67.684-27.182
	c16.164,0,31.054,5.191,44.961,15.673c13.812,10.48,23.949,23.361,30.414,38.74c4.115,11.117,6.222,22.529,6.222,34.186
	c0,17.19-5.634,32.961-16.8,47.409c-11.116,14.448-25.075,25.125-41.776,32.079L988.613,256c44.617,20.031,67,47.752,67,83.113
	c0,22.676-8.131,43.05-24.244,60.976c-16.113,17.927-35.213,26.888-57.353,26.888c-23.018,0-43.295-7.199-60.827-21.549
	L906.334,399.746z M863.062,313.205c39.45,57.645,76.28,86.541,110.27,86.541c13.91,0,26.547-6.171,37.908-18.514
	c11.461-12.342,17.143-26.644,17.143-42.902c0-42.316-45.549-67.393-136.645-75.326v-14.693
	c91.096-7.346,136.645-32.569,136.645-75.276c0-15.379-5.486-29.484-16.358-42.218c-10.972-12.832-23.802-19.199-38.691-19.199
	c-34.479,0-71.211,29.142-110.27,87.179l-13.226-7.641c19.494-39.083,29.264-72.828,29.264-101.186
	c0-41.875-19.297-62.788-57.913-62.788c-18.538,0-32.89,5.73-42.881,17.143c-9.966,11.362-14.985,26.398-14.985,44.96
	c0,27.917,9.722,61.955,29.288,101.871l-13.297,7.641c-39.011-58.037-75.768-87.179-110.174-87.179
	c-13.958,0-26.644,6.221-38.078,18.514c-11.389,12.293-16.995,26.594-16.995,42.903c0,42.707,45.548,67.931,136.718,75.276v14.693
	c-91.17,7.936-136.718,33.01-136.718,75.326c0,15.329,5.412,29.436,16.357,42.168c10.922,12.783,23.827,19.248,38.716,19.248
	c33.94,0,70.648-28.896,110.174-86.541l13.297,7.052c-19.566,39.966-29.288,74.103-29.288,102.508
	c0,18.562,5.021,33.6,14.985,44.961c9.991,11.411,24.343,17.094,42.881,17.094c18.61,0,32.961-5.779,42.928-17.437
	c9.992-11.606,14.985-26.741,14.985-45.4c0-27.918-9.77-61.761-29.264-101.726L863.062,313.205z"/>
</svg>
